<svg width="39" height="39" viewBox="0 0 39 39" fill="none" xmlns="http://www.w3.org/2000/svg">
<g clip-path="url(#clip0_44_6331)">
<g clip-path="url(#clip1_44_6331)">
<g clip-path="url(#clip2_44_6331)">
<path d="M19.0072 37.5399C29.2425 37.5399 37.5399 29.2425 37.5399 19.0072C37.5399 8.77195 29.2425 0.474609 19.0072 0.474609C8.77195 0.474609 0.474609 8.77195 0.474609 19.0072C0.474609 29.2425 8.77195 37.5399 19.0072 37.5399Z" stroke="#4944F2" stroke-width="0.950391"/>
<path d="M16.0327 18.1456H23.9887C24.3861 18.1456 24.7113 18.535 24.7113 19.0108C24.7113 19.4867 24.3861 19.876 23.9887 19.876H16.0327V21.4246C16.0327 21.814 15.6425 22.0044 15.4185 21.7275L13.4096 19.3136C13.2723 19.1406 13.2723 18.8724 13.4096 18.6994L15.4185 16.2855C15.6425 16.0086 16.0327 16.2077 16.0327 16.5883V18.1456Z" fill="#4944F2"/>
</g>
</g>
</g>
<defs>
<clipPath id="clip0_44_6331">
<path d="M0 19.0078C0 8.51009 8.51009 0 19.0078 0C29.5055 0 38.0156 8.51009 38.0156 19.0078C38.0156 29.5055 29.5055 38.0156 19.0078 38.0156C8.51009 38.0156 0 29.5055 0 19.0078Z" fill="white"/>
</clipPath>
<clipPath id="clip1_44_6331">
<rect width="38.0156" height="38.0156" fill="white"/>
</clipPath>
<clipPath id="clip2_44_6331">
<rect width="38.0156" height="38.0156" fill="white"/>
</clipPath>
</defs>
</svg>
