<svg width="39" height="39" viewBox="0 0 39 39" fill="none" xmlns="http://www.w3.org/2000/svg">
<g clip-path="url(#clip0_44_6325)">
<g clip-path="url(#clip1_44_6325)">
<g clip-path="url(#clip2_44_6325)">
<path d="M19.0084 37.5399C8.77311 37.5399 0.475773 29.2425 0.475773 19.0072C0.475773 8.77195 8.77311 0.474609 19.0084 0.474609C29.2437 0.474609 37.541 8.77195 37.541 19.0072C37.541 29.2425 29.2437 37.5399 19.0084 37.5399Z" stroke="#4944F2" stroke-width="0.950391"/>
<path d="M21.9829 18.1456H14.0269C13.6295 18.1456 13.3043 18.535 13.3043 19.0108C13.3043 19.4867 13.6295 19.876 14.0269 19.876H21.9829V21.4246C21.9829 21.814 22.3731 22.0044 22.5971 21.7275L24.6061 19.3136C24.7433 19.1406 24.7433 18.8724 24.6061 18.6994L22.5971 16.2855C22.3731 16.0086 21.9829 16.2077 21.9829 16.5883V18.1456Z" fill="#4944F2"/>
</g>
</g>
</g>
<defs>
<clipPath id="clip0_44_6325">
<path d="M38.0156 19.0078C38.0156 8.51009 29.5055 0 19.0078 0C8.51008 0 -7.62939e-06 8.51009 -7.62939e-06 19.0078C-7.62939e-06 29.5055 8.51008 38.0156 19.0078 38.0156C29.5055 38.0156 38.0156 29.5055 38.0156 19.0078Z" fill="white"/>
</clipPath>
<clipPath id="clip1_44_6325">
<rect width="38.0156" height="38.0156" fill="white" transform="matrix(-1 0 0 1 38.0156 0)"/>
</clipPath>
<clipPath id="clip2_44_6325">
<rect width="38.0156" height="38.0156" fill="white" transform="matrix(-1 0 0 1 38.0156 0)"/>
</clipPath>
</defs>
</svg>
