<svg width="24" height="18" viewBox="0 0 24 18" fill="none" xmlns="http://www.w3.org/2000/svg">
<path d="M0.821556 17.25V12.3601C0.821556 10.9538 1.08523 9.49165 1.61257 7.97354C2.1559 6.43945 2.89098 4.99325 3.81783 3.63494C4.76065 2.26065 5.81534 1.10209 6.98189 0.159266L11.0089 2.77201C10.0661 4.19424 9.27504 5.6804 8.63583 7.23047C8.01261 8.76456 7.70898 10.4584 7.72496 12.3121V17.25H0.821556ZM12.9744 17.25V12.3601C12.9744 10.9538 13.2381 9.49165 13.7654 7.97354C14.3088 6.43945 15.0439 4.99325 15.9707 3.63494C16.9135 2.26065 17.9682 1.10209 19.1348 0.159266L23.1618 2.77201C22.2189 4.19424 21.4279 5.6804 20.7887 7.23047C20.1655 8.76456 19.8619 10.4584 19.8778 12.3121V17.25H12.9744Z" fill="#4944F2"/>
</svg>
