<svg width="24" height="18" viewBox="0 0 24 18" fill="none" xmlns="http://www.w3.org/2000/svg">
<path d="M11.0673 0.159089V5.049C11.0673 6.45525 10.7956 7.91744 10.2523 9.43555C9.72496 10.9377 8.99787 12.3759 8.07102 13.7502C7.14418 15.1085 6.08949 16.275 4.90696 17.2498L0.879972 14.6371C1.75888 13.3107 2.52592 11.8805 3.18111 10.3464C3.83629 8.79634 4.16389 7.04652 4.16389 5.09695V0.159089H11.0673ZM23.1722 0.159089V5.049C23.1722 6.45525 22.9006 7.91744 22.3572 9.43555C21.8299 10.9377 21.1028 12.3759 20.176 13.7502C19.2491 15.1085 18.2024 16.275 17.0359 17.2498L13.0089 14.6371C13.8718 13.3107 14.6309 11.8805 15.286 10.3464C15.9412 8.79634 16.2688 7.04652 16.2688 5.09695V0.159089H23.1722Z" fill="#4944F2"/>
</svg>
